<svg width="1920" height="397" viewBox="0 0 1920 397" fill="none" xmlns="http://www.w3.org/2000/svg">
  <path d="M1920 343L1880 316C1840 289 1760 235 1680 216.944C1600 199.562 1520 216.437 1440 181C1360 145.562 1280 54.4375 1200 19C1120 -16.4375 1040 0.4375 960 54.9438C880 108.437 800 199.562 720 226.056C640 253.562 560 216.437 480 226.056C400 235 320 289 240 280.056C160 270.437 80 199.562 40 162.944L0 127V397H40C80 397 160 397 240 397C320 397 400 397 480 397C560 397 640 397 720 397C800 397 880 397 960 397C1040 397 1120 397 1200 397C1280 397 1360 397 1440 397C1520 397 1600 397 1680 397C1760 397 1840 397 1880 397H1920V343Z" fill="#3162FF"/>
</svg>
